<svg width="389" height="389" viewBox="0 0 389 389" fill="none" xmlns="http://www.w3.org/2000/svg">
<path d="M231.066 117.172L231.073 117.004L231.202 117.066L231.066 117.172ZM369.194 110.108L366.379 104.678C355.429 83.5393 340.66 64.611 322.819 48.8481L319.561 45.9737L231.197 117.076C247.112 124.709 264.379 129.122 282.005 130.063C299.631 131.004 317.269 128.453 333.907 122.558L369.194 110.108ZM231.068 117.015L230.98 3.59391L226.699 2.86189C203.231 -1.13856 179.225 -0.761728 155.896 3.97705L149.901 5.19211L162.355 40.472C168.206 57.1242 177.288 72.4591 189.08 85.5927C200.872 98.7263 215.144 109.402 231.073 117.004L231.068 117.015ZM278.33 369.2L283.751 366.381C304.895 355.436 323.827 340.668 339.589 322.825L342.464 319.568L271.3 231.33C263.696 247.233 259.304 264.479 258.374 282.081C257.444 299.683 259.995 317.296 265.881 333.912L278.33 369.2ZM384.842 230.985L385.574 226.705C389.577 203.233 389.195 179.226 384.448 155.896L383.242 149.905L347.954 162.354C331.326 168.196 316.013 177.261 302.893 189.028C289.771 200.797 279.1 215.037 271.489 230.933L384.842 230.985ZM271.3 231.33L271.489 230.933L270.993 230.927L271.3 231.33ZM122.559 54.5189L110.109 19.2306L104.679 22.0463C83.5416 32.9951 64.613 47.7658 48.8505 65.6067L45.9769 68.8628L117.051 157.289C124.694 141.365 129.115 124.088 130.059 106.452C131.002 88.8126 128.451 71.1637 122.551 54.5149L122.559 54.5189ZM2.86611 161.727C-1.13401 185.195 -0.75616 209.201 3.98202 232.531L5.19744 238.526L40.4768 226.072C57.1411 220.217 72.486 211.127 85.627 199.323C98.7697 187.519 109.448 173.234 117.051 157.289L3.59879 157.445L2.86611 161.727ZM157.229 271.36L157.358 271.422L157.35 271.259L157.229 271.36ZM19.2318 278.327L22.052 283.748C32.9959 304.892 47.763 323.825 65.6079 339.588L68.8636 342.462L157.229 271.36C141.31 263.731 124.043 259.321 106.417 258.382C88.7903 257.443 71.1521 259.994 54.5148 265.888L19.2318 278.327ZM157.358 271.422L157.445 384.842L161.727 385.574C185.197 389.577 209.205 389.196 232.535 384.45L238.525 383.244L226.075 347.955C220.222 331.303 211.139 315.97 199.347 302.837C187.555 289.703 173.285 279.027 157.358 271.422ZM157.34 271.254L157.5 271.148C191.314 248.203 230.461 234.341 271.179 230.895L271.068 230.744C248.119 196.931 234.256 157.783 230.814 117.064L230.668 117.164C196.858 140.118 157.708 153.98 116.989 157.418L117.085 157.574C140.038 191.381 153.903 230.527 157.344 271.244L157.34 271.254Z" fill="url(#paint0_linear_2001_136)"/>
<defs>
<linearGradient id="paint0_linear_2001_136" x1="12.2112" y1="258.428" x2="437.32" y2="147.241" gradientUnits="userSpaceOnUse">
<stop stop-color="#0147FF"/>
<stop offset="1" stop-color="#0147FF" stop-opacity="0"/>
</linearGradient>
</defs>
</svg>
